<svg id="Layer_1" data-name="Layer 1" xmlns="http://www.w3.org/2000/svg" xmlns:xlink="http://www.w3.org/1999/xlink" viewBox="0 0 201.53 59.71"><defs><style>.cls-1{fill:#fff;}.cls-2{fill:#a6a6a6;}.cls-3{fill:url(#linear-gradient);}</style><linearGradient id="linear-gradient" x1="197.73" y1="614.22" x2="197.73" y2="623.3" gradientTransform="matrix(23.74, 0, 0, -23.72, -4545.57, 14631.03)" gradientUnits="userSpaceOnUse"><stop offset="0" stop-color="#1a1a1a" stop-opacity="0.1"/><stop offset="0.12" stop-color="#212121" stop-opacity="0.15"/><stop offset="0.31" stop-color="#353535" stop-opacity="0.23"/><stop offset="0.53" stop-color="#575757" stop-opacity="0.32"/><stop offset="0.78" stop-color="#858585" stop-opacity="0.42"/><stop offset="1" stop-color="#b3b3b3" stop-opacity="0.51"/></linearGradient></defs><path class="cls-1" d="M200.19,52.66a5.72,5.72,0,0,1-5.72,5.72H7.06a5.71,5.71,0,0,1-5.73-5.72V7.06A5.73,5.73,0,0,1,7.06,1.33H194.47a5.72,5.72,0,0,1,5.72,5.72h0v45.6Z"/><path class="cls-2" d="M194.47,59.71H7.06A7.06,7.06,0,0,1,0,52.66V7.06A7.07,7.07,0,0,1,7.06,0H194.47a7.07,7.07,0,0,1,7.06,7.06v45.6a7.06,7.06,0,0,1-7.06,7.05Z"/><path d="M200.19,52.66a5.72,5.72,0,0,1-5.72,5.72H7.06a5.71,5.71,0,0,1-5.73-5.72V7.06A5.73,5.73,0,0,1,7.06,1.33H194.47a5.72,5.72,0,0,1,5.72,5.72h0v45.6Z"/><path class="cls-1" d="M45,29.54a8.67,8.67,0,0,1,4.12-7.26,8.87,8.87,0,0,0-7-3.78c-2.94-.3-5.79,1.76-7.28,1.76S31,18.53,28.54,18.58a9.29,9.29,0,0,0-7.83,4.78c-3.38,5.86-.86,14.46,2.39,19.2,1.62,2.32,3.51,4.91,6,4.82s3.34-1.55,6.27-1.55,3.75,1.55,6.28,1.49,4.25-2.33,5.81-4.67a19.13,19.13,0,0,0,2.66-5.41A8.38,8.38,0,0,1,45,29.54ZM40.22,15.39a8.49,8.49,0,0,0,2-6.11,8.69,8.69,0,0,0-5.61,2.91,8.06,8.06,0,0,0-2,5.88A7.18,7.18,0,0,0,40.22,15.39Z"/><path class="cls-3" d="M194.47,0H94.09l39.32,59.71h61.06a7.07,7.07,0,0,0,7.06-7.05V7.06A7.07,7.07,0,0,0,194.47,0Z"/><path class="cls-1" d="M80.16,47h-3.4l-1.85-5.83H68.45L66.68,47H63.37l6.4-19.87h4L80.16,47Zm-5.81-8.28-1.68-5.19c-.18-.53-.52-1.78-1-3.75H71.6c-.19.85-.51,2.1-.94,3.75L69,38.76Zm22.23.94a8.13,8.13,0,0,1-2,5.78,5.83,5.83,0,0,1-4.42,1.89,4.4,4.4,0,0,1-4.09-2v7.52H82.9V37.42q0-2.3-.12-4.71h2.8L85.76,35h.06a5.67,5.67,0,0,1,9.07-.57,7.91,7.91,0,0,1,1.69,5.28Zm-3.24.12a5.88,5.88,0,0,0-1-3.45A3.26,3.26,0,0,0,89.62,35a3.38,3.38,0,0,0-2.14.78,3.73,3.73,0,0,0-1.25,2.05,4.08,4.08,0,0,0-.15,1v2.39a3.81,3.81,0,0,0,1,2.64,3.18,3.18,0,0,0,2.49,1.08,3.25,3.25,0,0,0,2.8-1.38A6.12,6.12,0,0,0,93.34,39.82Zm19.73-.12a8.09,8.09,0,0,1-2,5.78,5.83,5.83,0,0,1-4.42,1.89,4.42,4.42,0,0,1-4.09-2v7.52H99.38V37.42c0-1.53,0-3.1-.11-4.71h2.8l.18,2.28h0a5.67,5.67,0,0,1,9.07-.57,7.92,7.92,0,0,1,1.7,5.28Zm-3.25.12a5.88,5.88,0,0,0-.94-3.45A3.27,3.27,0,0,0,106.11,35a3.36,3.36,0,0,0-2.14.78,3.62,3.62,0,0,0-1.25,2.05,4.18,4.18,0,0,0-.15,1v2.39a3.85,3.85,0,0,0,1,2.64,3.18,3.18,0,0,0,2.5,1.08,3.26,3.26,0,0,0,2.8-1.38A6.12,6.12,0,0,0,109.82,39.82Zm21.68,1.65a5.3,5.3,0,0,1-1.77,4.13,7.82,7.82,0,0,1-5.41,1.74,9.5,9.5,0,0,1-5.15-1.24l.74-2.65a8.91,8.91,0,0,0,4.6,1.24,4.34,4.34,0,0,0,2.8-.82,2.63,2.63,0,0,0,1-2.16,2.81,2.81,0,0,0-.82-2,7.79,7.79,0,0,0-2.75-1.53c-3.48-1.3-5.22-3.19-5.22-5.69a5,5,0,0,1,1.84-4,7.32,7.32,0,0,1,4.89-1.56,9.66,9.66,0,0,1,4.51.94l-.8,2.6a7.9,7.9,0,0,0-3.82-.92,3.88,3.88,0,0,0-2.63.83,2.36,2.36,0,0,0-.8,1.8,2.42,2.42,0,0,0,.91,1.94,10.42,10.42,0,0,0,2.89,1.54A9.78,9.78,0,0,1,130.28,38a5,5,0,0,1,1.22,3.45Zm10.55-6.37h-3.51v7c0,1.77.62,2.65,1.86,2.65a5.66,5.66,0,0,0,1.42-.15l.09,2.42a7.13,7.13,0,0,1-2.48.35,3.81,3.81,0,0,1-3-1.15,5.6,5.6,0,0,1-1.06-3.86V35.1h-2.09V32.71h2.09V30.08l3.12-.94v3.57h3.51V35.1Zm15.81,4.66A7.88,7.88,0,0,1,156,45.19a6.73,6.73,0,0,1-5.25,2.18,6.44,6.44,0,0,1-5-2.09A7.68,7.68,0,0,1,143.82,40a7.81,7.81,0,0,1,1.93-5.45A6.7,6.7,0,0,1,151,32.42a6.54,6.54,0,0,1,5.07,2.1,7.52,7.52,0,0,1,1.83,5.24Zm-3.3.07a6.43,6.43,0,0,0-.85-3.38,3.17,3.17,0,0,0-2.87-1.7,3.22,3.22,0,0,0-2.92,1.7,6.55,6.55,0,0,0-.85,3.44,6.42,6.42,0,0,0,.85,3.39,3.23,3.23,0,0,0,2.9,1.7,3.19,3.19,0,0,0,2.86-1.73,6.43,6.43,0,0,0,.88-3.42Zm13.66-4.32a4.92,4.92,0,0,0-1-.08,3,3,0,0,0-2.59,1.26,4.8,4.8,0,0,0-.8,2.83V47h-3.18V37.23c0-1.51,0-3-.1-4.51h2.78l.11,2.74h.09a4.88,4.88,0,0,1,1.59-2.27,3.86,3.86,0,0,1,2.31-.77,4.7,4.7,0,0,1,.79.06v3Zm14.24,3.69a7,7,0,0,1-.12,1.44h-9.55a4.16,4.16,0,0,0,1.38,3.25,4.74,4.74,0,0,0,3.13,1,10.4,10.4,0,0,0,3.86-.68l.5,2.21a11.92,11.92,0,0,1-4.8.89,7,7,0,0,1-5.24-2,7.23,7.23,0,0,1-1.9-5.26,8.24,8.24,0,0,1,1.77-5.4,6.11,6.11,0,0,1,5-2.29,5.33,5.33,0,0,1,4.69,2.29,7.76,7.76,0,0,1,1.27,4.51Zm-3-.83a4.33,4.33,0,0,0-.62-2.44,2.77,2.77,0,0,0-2.53-1.33,3,3,0,0,0-2.54,1.3,4.73,4.73,0,0,0-.94,2.47Z"/><path class="cls-1" d="M67.53,20.15A21,21,0,0,1,65.24,20V10.42a17.31,17.31,0,0,1,2.69-.2c3.66,0,5.34,1.79,5.34,4.72C73.27,18.32,71.28,20.15,67.53,20.15Zm.53-8.7a6.56,6.56,0,0,0-1.26.1v7.31c.19,0,.55,0,1.06,0,2.39,0,3.76-1.36,3.76-3.91A3.19,3.19,0,0,0,68.06,11.45Zm10.45,8.77a3.35,3.35,0,0,1-3.39-3.62,3.43,3.43,0,0,1,3.51-3.73A3.33,3.33,0,0,1,82,16.48,3.46,3.46,0,0,1,78.51,20.22Zm.06-6.2c-1.13,0-1.86,1.05-1.86,2.53s.74,2.51,1.84,2.51,1.84-1.13,1.84-2.54S79.67,14,78.57,14Zm15.19-1-2.21,7H90.12L89.2,17c-.22-.75-.41-1.51-.56-2.27h0A15.08,15.08,0,0,1,88,17l-1,3.06H85.62l-2.07-7h1.61l.8,3.34c.18.8.34,1.55.47,2.27h0c.12-.6.31-1.34.58-2.25L88,13h1.28l1,3.29c.23.8.42,1.58.56,2.32h0a23.46,23.46,0,0,1,.48-2.32L92.22,13Zm8.11,7H100.3V16c0-1.24-.48-1.86-1.42-1.86a1.62,1.62,0,0,0-1.57,1.72v4.19H95.75V15q0-.93-.06-2h1.38l.07,1.08h0a2.55,2.55,0,0,1,2.24-1.23c1.48,0,2.45,1.13,2.45,3v4.22Zm4.31,0h-1.56V9.79h1.56Zm5.71.16a3.35,3.35,0,0,1-3.39-3.62,3.43,3.43,0,0,1,3.5-3.73,3.33,3.33,0,0,1,3.4,3.61A3.46,3.46,0,0,1,111.89,20.22ZM112,14c-1.13,0-1.86,1.05-1.86,2.53s.74,2.51,1.84,2.51,1.84-1.13,1.84-2.54S113.05,14,112,14Zm9.62,6-.12-.81h0a2.41,2.41,0,0,1-2.06,1,2.05,2.05,0,0,1-2.16-2.07c0-1.74,1.51-2.64,4.12-2.64v-.13c0-.93-.49-1.39-1.46-1.39a3.27,3.27,0,0,0-1.84.52l-.32-1a4.46,4.46,0,0,1,2.42-.61c1.84,0,2.77,1,2.77,2.91v2.6a10.68,10.68,0,0,0,.1,1.68Zm-.22-3.51c-1.74,0-2.61.42-2.61,1.42a1,1,0,0,0,1.08,1.1,1.5,1.5,0,0,0,1.53-1.43Zm9.13,3.51-.07-1.13h0a2.36,2.36,0,0,1-2.26,1.29c-1.7,0-2.95-1.49-2.95-3.6s1.3-3.75,3.08-3.75a2.13,2.13,0,0,1,2,1h0v-4h1.56v8.37c0,.68,0,1.32.06,1.9Zm-.23-4.15a1.71,1.71,0,0,0-1.65-1.82c-1.16,0-1.87,1-1.87,2.48s.73,2.39,1.84,2.39a1.76,1.76,0,0,0,1.68-1.87V15.91Zm11.5,4.31a3.35,3.35,0,0,1-3.39-3.62,3.43,3.43,0,0,1,3.51-3.73,3.33,3.33,0,0,1,3.39,3.61,3.46,3.46,0,0,1-3.51,3.74Zm.06-6.2c-1.13,0-1.86,1.05-1.86,2.53s.74,2.51,1.84,2.51,1.84-1.13,1.84-2.54-.72-2.5-1.82-2.5Zm11.87,6h-1.57V16c0-1.24-.48-1.86-1.42-1.86a1.62,1.62,0,0,0-1.57,1.72v4.19h-1.56V15q0-.93-.06-2h1.38L149,14.1h0a2.54,2.54,0,0,1,2.23-1.23c1.48,0,2.46,1.13,2.46,3Zm10.53-5.87h-1.73v3.42c0,.87.31,1.3.92,1.3a3.34,3.34,0,0,0,.69-.07l0,1.19a3.38,3.38,0,0,1-1.21.17c-1.23,0-2-.68-2-2.46V14.19h-1V13h1V11.73l1.53-.47V13h1.73v1.17Zm8.28,5.87h-1.56V16c0-1.26-.48-1.89-1.42-1.89a1.54,1.54,0,0,0-1.57,1.66v4.25h-1.56V9.79h1.56V14h0a2.39,2.39,0,0,1,2.12-1.15c1.49,0,2.4,1.16,2.4,3v4.19ZM181,16.91h-4.69A2,2,0,0,0,178.51,19a5.39,5.39,0,0,0,1.89-.33l.25,1.08a5.9,5.9,0,0,1-2.37.44,3.27,3.27,0,0,1-3.5-3.55c0-2.16,1.33-3.78,3.33-3.78,1.8,0,2.93,1.33,2.93,3.34a2.8,2.8,0,0,1-.06.71Zm-1.43-1.11c0-1.09-.55-1.86-1.55-1.86a1.86,1.86,0,0,0-1.71,1.86Z"/></svg>