<svg id="Layer_1" data-name="Layer 1" xmlns="http://www.w3.org/2000/svg" xmlns:xlink="http://www.w3.org/1999/xlink" viewBox="0 0 199.47 59.2"><defs><style>.cls-1{fill:#a6a6a6;}.cls-2{fill:#fff;}.cls-3{fill:#00c1ff;}.cls-4{fill:url(#linear-gradient);}.cls-5{fill:url(#linear-gradient-2);}.cls-6{fill:url(#linear-gradient-3);}.cls-7{fill:url(#linear-gradient-4);}.cls-8{fill:url(#linear-gradient-5);}.cls-9{fill:url(#linear-gradient-6);}.cls-10{fill:url(#linear-gradient-7);}.cls-11{fill:url(#linear-gradient-8);}</style><linearGradient id="linear-gradient" x1="342.29" y1="-1119.01" x2="312.01" y2="-1060.78" gradientTransform="translate(-49.51 490.24) scale(0.22 0.43)" gradientUnits="userSpaceOnUse"><stop offset="0" stop-color="#00a0ff"/><stop offset="0.01" stop-color="#00a1ff"/><stop offset="0.26" stop-color="#00beff"/><stop offset="0.51" stop-color="#00d2ff"/><stop offset="0.76" stop-color="#00dfff"/><stop offset="1" stop-color="#00e3ff"/></linearGradient><linearGradient id="linear-gradient-2" x1="119.99" y1="-1855.24" x2="15.19" y2="-1855.24" gradientTransform="translate(9.06 544.83) scale(0.34 0.28)" gradientUnits="userSpaceOnUse"><stop offset="0" stop-color="#ffe000"/><stop offset="0.41" stop-color="#ffbd00"/><stop offset="0.78" stop-color="orange"/><stop offset="1" stop-color="#ff9c00"/></linearGradient><linearGradient id="linear-gradient-3" x1="322.23" y1="-2128.63" x2="226.71" y2="-2055.41" gradientTransform="translate(-77.92 609) scale(0.35 0.27)" gradientUnits="userSpaceOnUse"><stop offset="0" stop-color="#ff3a44"/><stop offset="1" stop-color="#c31162"/></linearGradient><linearGradient id="linear-gradient-4" x1="248.33" y1="-1894.37" x2="290.92" y2="-1861.68" gradientTransform="translate(-77.86 522.1) scale(0.35 0.27)" gradientUnits="userSpaceOnUse"><stop offset="0" stop-color="#32a071"/><stop offset="0.07" stop-color="#2da771"/><stop offset="0.48" stop-color="#15cf74"/><stop offset="0.8" stop-color="#06e775"/><stop offset="1" stop-color="#00f076"/></linearGradient><linearGradient id="linear-gradient-5" x1="321.76" y1="-771.68" x2="305.38" y2="-724.23" gradientTransform="translate(-39.27 418.61) scale(0.18 0.52)" gradientUnits="userSpaceOnUse"><stop offset="0" stop-color="#008de0"/><stop offset="0.01" stop-color="#008de0"/><stop offset="0.26" stop-color="#00a7e0"/><stop offset="0.51" stop-color="#00b8e0"/><stop offset="0.76" stop-color="#00c4e0"/><stop offset="1" stop-color="#00c7e0"/></linearGradient><linearGradient id="linear-gradient-6" x1="52.44" y1="-2047" x2="-44.81" y2="-2047" gradientTransform="translate(30.71 560.23) scale(0.37 0.26)" gradientUnits="userSpaceOnUse"><stop offset="0" stop-color="#e0c500"/><stop offset="0.41" stop-color="#e0a600"/><stop offset="0.78" stop-color="#e09100"/><stop offset="1" stop-color="#e08900"/></linearGradient><linearGradient id="linear-gradient-7" x1="52.43" y1="-1959.61" x2="-44.81" y2="-1959.61" gradientTransform="translate(30.71 531.46) scale(0.37 0.26)" gradientUnits="userSpaceOnUse"><stop offset="0" stop-color="#ffe840"/><stop offset="0.41" stop-color="#ffce40"/><stop offset="0.78" stop-color="#ffbc40"/><stop offset="1" stop-color="#ffb540"/></linearGradient><linearGradient id="linear-gradient-8" x1="301.41" y1="-470.98" x2="285.13" y2="-425.71" gradientTransform="translate(-39.2 257.81) scale(0.18 0.52)" gradientUnits="userSpaceOnUse"><stop offset="0" stop-color="#40b8ff"/><stop offset="0.01" stop-color="#40b9ff"/><stop offset="0.26" stop-color="#40ceff"/><stop offset="0.51" stop-color="#40ddff"/><stop offset="0.76" stop-color="#40e7ff"/><stop offset="1" stop-color="#40eaff"/></linearGradient></defs><path d="M192.08,59.2H7.39A7.41,7.41,0,0,1,0,51.8V7.4A7.41,7.41,0,0,1,7.39,0H192.08a7.42,7.42,0,0,1,7.39,7.4V51.8a7.42,7.42,0,0,1-7.39,7.4"/><path class="cls-1" d="M192.08,0H7.39A7.41,7.41,0,0,0,0,7.4V51.8a7.41,7.41,0,0,0,7.39,7.4H192.08a7.42,7.42,0,0,0,7.39-7.4V7.4A7.42,7.42,0,0,0,192.08,0m0,1.18a6.22,6.22,0,0,1,6.2,6.22V51.8a6.21,6.21,0,0,1-6.2,6.21H7.39A6.22,6.22,0,0,1,1.18,51.8V7.4A6.22,6.22,0,0,1,7.39,1.18H192.08"/><path class="cls-2" d="M70.06,15.16a4,4,0,0,1-1.1,3,4.28,4.28,0,0,1-3.26,1.32,4.58,4.58,0,0,1-4.6-4.64,4.61,4.61,0,0,1,6.42-4.27,3.72,3.72,0,0,1,1.39,1l-.78.79a3,3,0,0,0-2.43-1.06,3.36,3.36,0,0,0-2.42,1,3.4,3.4,0,0,0-1,2.56,3.4,3.4,0,0,0,1,2.56,3.51,3.51,0,0,0,4.9,0,2.75,2.75,0,0,0,.74-1.79H65.7V14.49H70a3.88,3.88,0,0,1,.06.67"/><path class="cls-2" d="M70.06,15.16h-.15a3.87,3.87,0,0,1-1,2.86h0a4.11,4.11,0,0,1-3.15,1.27,4.42,4.42,0,0,1-4.45-4.49,4.42,4.42,0,0,1,4.45-4.49,4.45,4.45,0,0,1,1.77.36,3.52,3.52,0,0,1,1.33.95l.11-.1-.1-.1L68,12.2l.1.11.11-.1A3.13,3.13,0,0,0,65.7,11.1a3.53,3.53,0,0,0-2.52,1,3.58,3.58,0,0,0-1.07,2.67,3.58,3.58,0,0,0,1.07,2.67,3.52,3.52,0,0,0,2.52,1,3.44,3.44,0,0,0,2.58-1,3,3,0,0,0,.79-1.89v-.16H65.85v-.77H70v-.15l-.15,0a3.55,3.55,0,0,1,.06.64h.3a4.23,4.23,0,0,0-.06-.7l0-.12H65.56V15.7h3.36v-.14l-.14,0a2.72,2.72,0,0,1-.7,1.71,3.24,3.24,0,0,1-2.38.95,3.3,3.3,0,0,1-3.29-3.4,3.24,3.24,0,0,1,1-2.46,3.2,3.2,0,0,1,2.31-.94,2.84,2.84,0,0,1,2.32,1l.1.12.89-.89.1-.1-.09-.1a3.7,3.7,0,0,0-1.44-1A4.74,4.74,0,0,0,61,14.8a4.73,4.73,0,0,0,4.75,4.79,4.48,4.48,0,0,0,3.37-1.36L69,18.12l.11.11a4.19,4.19,0,0,0,1.14-3.07h-.15m6.81-3.71h-4v2.82h3.65v1.06H72.83v2.82h4v1.09H71.7V10.36h5.17v1.09"/><path class="cls-2" d="M76.87,11.45V11.3H72.69v3.11h3.64v.77H72.69V18.3h4v.79H71.84V10.51h4.88v.94h.15v0H77V10.21H71.55v9.18H77V18H73V15.48h3.64V14.12H73V11.6h4v-.15h-.15m4.81,7.79H80.54V11.45H78.06V10.36h6.09v1.09H81.68v7.79"/><path class="cls-2" d="M81.68,19.24v-.15h-1V11.3H78.21v-.79H84v.79H81.53v7.94h.15v0h.14V11.6H84.3V10.21H77.91V11.6h2.48v7.79h1.43v-.15h-.14m6.88,0V10.36H89.7v8.88H88.56"/><path class="cls-2" d="M88.56,19.24h.15V10.51h.84v8.58h-1v.15h0v.15h1.29V10.21H88.41v9.18h.15v-.15m6.19,0H93.61V11.45H91.14V10.36h6.09v1.09H94.75v7.79"/><path class="cls-2" d="M94.75,19.24v-.15h-1V11.3H91.28v-.79h5.8v.79H94.6v7.94h.15v0h.15V11.6h2.47V10.21H91V11.6h2.47v7.79H94.9v-.15h-.15m8.35-1.89a3.4,3.4,0,0,0,4.82,0,3.52,3.52,0,0,0,1-2.55,3.52,3.52,0,0,0-1-2.55,3.4,3.4,0,0,0-4.82,0,3.52,3.52,0,0,0-1,2.55A3.52,3.52,0,0,0,103.1,17.35Zm5.66.74a4.59,4.59,0,0,1-6.5,0A4.55,4.55,0,0,1,101,14.8a4.53,4.53,0,0,1,1.31-3.29,4.58,4.58,0,0,1,6.49,0,4.53,4.53,0,0,1,1.32,3.29A4.55,4.55,0,0,1,108.76,18.09Z"/><path class="cls-2" d="M103.1,17.35l-.1.1a3.55,3.55,0,0,0,5,0,3.61,3.61,0,0,0,1-2.65,3.59,3.59,0,0,0-1-2.65,3.53,3.53,0,0,0-5,0,3.59,3.59,0,0,0-1,2.65,3.61,3.61,0,0,0,1,2.65l.1-.1.11-.11a3.34,3.34,0,0,1-.95-2.44,3.38,3.38,0,0,1,.95-2.45,3.26,3.26,0,0,1,4.6,0,3.33,3.33,0,0,1,.94,2.45,3.29,3.29,0,0,1-.94,2.44,3.24,3.24,0,0,1-4.6,0Zm5.66.74-.11-.1a4.45,4.45,0,0,1-6.29,0h0a4.41,4.41,0,0,1-1.26-3.19,4.4,4.4,0,0,1,1.26-3.19,4.44,4.44,0,0,1,6.29,0,4.36,4.36,0,0,1,1.27,3.18A4.38,4.38,0,0,1,108.65,18l.11.1.11.1a4.71,4.71,0,0,0,1.34-3.39,4.71,4.71,0,0,0-1.35-3.39,4.73,4.73,0,0,0-6.71,0h0a4.71,4.71,0,0,0-1.34,3.4,4.67,4.67,0,0,0,1.34,3.39h0a4.73,4.73,0,0,0,6.72,0Zm2.9,1.15V10.36h1.39l4.31,6.91h0l0-1.71v-5.2h1.14v8.88h-1.19L112.8,12h0l0,1.71v5.53h-1.14"/><path class="cls-2" d="M111.66,19.24h.15V10.51H113l4.31,6.9h.28l0-1.86v-5h.84v8.58h-1l-4.51-7.24h-.28l.05,1.86v5.38h-1v.15h0v.15H113V13.71l0-1.72h-.15v.14h0V12l-.12.08,4.55,7.31h1.42V10.21h-1.44v5.35l.05,1.71h.15v-.15h0v.15l.12-.08-4.35-7h-1.61v9.18h.14v-.15M158,44.4h2.76V25.9H158Zm24.83-11.84-3.16,8h-.09l-3.28-8h-3l4.92,11.21L175.44,50h2.88l7.58-17.45ZM167.2,42.3c-.91,0-2.17-.46-2.17-1.58,0-1.42,1.57-2,2.93-2a4.89,4.89,0,0,1,2.52.62,3.36,3.36,0,0,1-3.28,2.93Zm.33-10.14A5.18,5.18,0,0,0,162.61,35l2.45,1a2.6,2.6,0,0,1,2.52-1.35,2.66,2.66,0,0,1,2.9,2.38v.19a6,6,0,0,0-2.88-.72c-2.64,0-5.32,1.45-5.32,4.17,0,2.47,2.16,4.07,4.58,4.07a3.9,3.9,0,0,0,3.52-1.81h.1v1.43h2.66v-7.1c0-3.28-2.45-5.11-5.61-5.11Zm-17,2.65h-3.92V28.47h3.92a3.17,3.17,0,1,1,0,6.34Zm-.07-8.91h-6.61V44.4h2.76v-7h3.85a5.75,5.75,0,1,0,0-11.49Zm-36,16.4a3.61,3.61,0,0,1-3.5-3.79,3.63,3.63,0,0,1,3.5-3.84,3.54,3.54,0,0,1,3.35,3.84,3.51,3.51,0,0,1-3.35,3.79Zm3.16-8.7h-.09a4.35,4.35,0,0,0-3.31-1.41,6.3,6.3,0,0,0,0,12.59,4.29,4.29,0,0,0,3.31-1.43h.09v.9c0,2.41-1.28,3.7-3.35,3.7A3.49,3.49,0,0,1,111,45.71l-2.4,1a6,6,0,0,0,5.57,3.72c3.23,0,6-1.91,6-6.56V32.57h-2.62Zm4.53,10.8h2.76V25.9h-2.76Zm6.83-6.11a3.45,3.45,0,0,1,3.28-3.67A2.41,2.41,0,0,1,134.53,36Zm8.57-2.09a5.85,5.85,0,0,0-5.38-4,6,6,0,0,0-5.93,6.29,6.16,6.16,0,0,0,6.24,6.3A6.25,6.25,0,0,0,137.65,42l-2.14-1.43a3.58,3.58,0,0,1-3.09,1.74,3.19,3.19,0,0,1-3-1.91l8.4-3.48ZM70.54,34.12v2.67h6.38a5.58,5.58,0,0,1-1.45,3.36,6.53,6.53,0,0,1-4.93,2,7.11,7.11,0,0,1,0-14.21,6.76,6.76,0,0,1,4.81,1.91l1.88-1.89a9.3,9.3,0,0,0-6.69-2.69,9.78,9.78,0,1,0,0,19.55,8.64,8.64,0,0,0,9.12-9,9.22,9.22,0,0,0-.14-1.67ZM86.91,42.3a3.82,3.82,0,1,1,3.55-3.82A3.64,3.64,0,0,1,86.91,42.3Zm0-10.11a6.3,6.3,0,1,0,6.31,6.29A6.21,6.21,0,0,0,86.91,32.19ZM100.67,42.3a3.82,3.82,0,1,1,3.55-3.82,3.64,3.64,0,0,1-3.55,3.82Zm0-10.11A6.3,6.3,0,1,0,107,38.48a6.21,6.21,0,0,0-6.31-6.29Z"/><path class="cls-3" d="M15.53,11.26a2.86,2.86,0,0,0-.8,2.19v32.3a3,3,0,0,0,.69,2.08l.11.1h0a1.82,1.82,0,0,0,1.3.48,3.36,3.36,0,0,0,1.66-.49L39.94,35.71l7.36-4.19a2.75,2.75,0,0,0,1.55-1.92h0a2.75,2.75,0,0,0-1.55-1.92l-7.36-4.19L18.49,11.28a3.41,3.41,0,0,0-1.66-.5,1.89,1.89,0,0,0-1.3.48Z"/><path class="cls-4" d="M15.53,47.93l-.11-.1a3,3,0,0,1-.69-2.08V13.45a2.86,2.86,0,0,1,.8-2.19L33.83,29.6,15.53,47.93"/><path class="cls-5" d="M39.94,35.71,33.83,29.6l6.11-6.11,7.36,4.19a2.75,2.75,0,0,1,1.55,1.92h0a2.75,2.75,0,0,1-1.55,1.92l-7.36,4.19"/><path class="cls-6" d="M16.83,48.41a1.82,1.82,0,0,1-1.3-.48h0L33.83,29.6l6.11,6.11L18.49,47.92a3.36,3.36,0,0,1-1.66.49"/><path class="cls-7" d="M33.83,29.6,15.53,11.26a1.89,1.89,0,0,1,1.3-.48,3.41,3.41,0,0,1,1.66.5L39.94,23.49,33.83,29.6"/><path class="cls-8" d="M15.42,48A3,3,0,0,1,14.73,46v-.21a3,3,0,0,0,.69,2.08l.11.1-.11.11"/><path class="cls-9" d="M40.07,35.85l-.13-.14,7.36-4.19a2.75,2.75,0,0,0,1.55-1.92,1.87,1.87,0,0,1-.17.76,3.2,3.2,0,0,1-1.38,1.38l-7.23,4.11"/><path class="cls-10" d="M48.85,29.6a2.75,2.75,0,0,0-1.55-1.92l-7.36-4.19.13-.14h0l7.23,4.11a2.6,2.6,0,0,1,1.55,2.14"/><path class="cls-11" d="M14.73,13.45v-.22c0-.09,0-.17,0-.24h0a2.82,2.82,0,0,1,.68-1.81l.11.1a2.86,2.86,0,0,0-.8,2.19"/></svg>