<?xml version="1.0" encoding="utf-8"?>
<!-- Generator: Adobe Illustrator 19.2.1, SVG Export Plug-In . SVG Version: 6.00 Build 0)  -->
<svg version="1.1" id="layer" xmlns="http://www.w3.org/2000/svg" xmlns:xlink="http://www.w3.org/1999/xlink" x="0px" y="0px"
	 viewBox="0 0 652 652" style="enable-background:new 0 0 652 652;" xml:space="preserve">
<style type="text/css">
	.st0{fill:url(#SVGID_1_);}
	.st1{fill:#272E35;}
</style>
<linearGradient id="SVGID_1_" gradientUnits="userSpaceOnUse" x1="139.7413" y1="440.6246" x2="139.7413" y2="221.6368" gradientTransform="matrix(1 0 0 -1 0 652)">
	<stop  offset="0" style="stop-color:#18C994"/>
	<stop  offset="1" style="stop-color:#17875E"/>
</linearGradient>
<path class="st0" d="M22,348.2h110.4l-13.7-23.6c-2.7-4.7-7.8-7.6-13.2-7.6H76.2l25-43.2l90.6,156.6L257.5,317h-36.1l-29.5,51
	l-90.6-156.6L22,348.2z"/>
<path class="st1" d="M542.3,335.6H563V315h-20.7V335.6z M486.7,409.7c-12.1,0-21.9-9.8-21.9-21.8c0-12,9.8-21.8,21.9-21.8
	c12.1,0,21.9,9.8,21.9,21.8C508.6,399.9,498.8,409.7,486.7,409.7z M486.7,345.4c-8.5,0-16.4,2.5-23.1,6.8V315H443v113.2h20.7v-4.7
	c6.7,4.3,14.6,6.8,23.1,6.8c23.5,0,42.6-19,42.6-42.5C529.3,364.4,510.2,345.4,486.7,345.4z M622,345.9v10.4
	c0,5.6-4.6,10.2-10.3,10.2h-10.4v26.3c0,8.2,6.7,14.9,15,14.9h5.7v20.6h-5.7c-19.7,0-35.6-15.9-35.6-35.5V315h10.4
	c5.7,0,10.3,4.6,10.3,10.2v20.6H622z M352.6,428.3h74.7v-10.7c0-5.5-4.5-10-10-10h-26.9l39.7-61.8h-72.4v20.6h34.6L352.6,428.3z
	 M563,428.4h-20.7v-82.5H563V428.4z M294.4,354.1L280.5,388h27L294.4,354.1z M345.4,428.3H333c-5.9,0-11.2-3.6-13.4-9.1l-4.5-11.5
	h-42.7l-8.4,20.6h-22.3l43.4-106.9c1.6-3.9,5.4-6.4,9.6-6.4c4.3,0,8.1,2.6,9.6,6.6L345.4,428.3z"/>
</svg>
