<?xml version="1.0" encoding="utf-8"?>
<!-- Generator: Adobe Illustrator 25.0.1, SVG Export Plug-In . SVG Version: 6.00 Build 0)  -->
<svg version="1.0" id="katman_1" xmlns="http://www.w3.org/2000/svg" xmlns:xlink="http://www.w3.org/1999/xlink" x="0px" y="0px"
	 viewBox="0 0 800 600" style="enable-background:new 0 0 800 600;" xml:space="preserve">
<style type="text/css">
	.st0{fill-rule:evenodd;clip-rule:evenodd;fill:#1D1D1B;}
	.st1{opacity:0.502;fill-rule:evenodd;clip-rule:evenodd;fill:#1D1D1B;enable-background:new    ;}
	.st2{opacity:0.502;fill:#1D1D1B;enable-background:new    ;}
</style>
<desc>Created with Sketch.</desc>
<g id="Page-1">
	<g id="exchanges_widget" transform="translate(-925.000000, -1398.000000)">
		<g id="dex-trade" transform="translate(925.000000, 1398.000000)">
			<polygon id="Path" class="st0" points="169.6,380.3 192.4,344.3 199,312.7 162.4,339.8 108.7,290.3 			"/>
			<polygon id="Path_1_" class="st1" points="91.1,273.1 130.3,364.9 145.4,352.2 			"/>
			<polygon id="Path_2_" class="st0" points="86.5,246.2 106.1,284 130.1,305.6 125,260.1 194.6,238.3 			"/>
			<polygon id="Path_3_" class="st1" points="119.4,219.7 122.8,239.2 218.2,231.6 			"/>
			<polygon id="Path_4_" class="st0" points="170.7,249.2 212.5,267.5 196.5,338.9 243.8,241 201.3,239.2 			"/>
			<polygon id="Path_5_" class="st1" points="190.5,362.7 250.2,282.8 250.2,282.8 231.6,276 			"/>
			<polygon id="Path_6_" class="st0" points="125,260.1 194.6,238.3 86.5,246.2 			"/>
			<polygon id="Path_7_" class="st0" points="212.4,267.5 196.5,338.9 243.8,241 			"/>
			<polygon id="Path_8_" class="st0" points="162.4,339.8 108.7,290.3 169.6,380.3 			"/>
			<path id="Shape" class="st0" d="M362.3,325.1c-0.4,0-0.8-0.1-1.1-0.3c-0.3-0.2-0.4-0.5-0.4-0.8s0.1-0.6,0.4-0.9
				c0.3-0.3,0.7-0.5,1.2-0.7c1.7-0.5,2.9-1,3.6-1.6c0.7-0.6,1-1.6,1-3.1v-33c0-1.6-0.3-2.7-0.9-3.4c-0.6-0.7-1.8-1.2-3.6-1.6
				c-1.1-0.2-1.7-0.7-1.7-1.5c0-0.3,0.1-0.5,0.4-0.8c0.3-0.2,0.7-0.3,1.2-0.3c1.8,0,3.7,0.1,5.6,0.2c2.5,0.1,4.3,0.1,5.3,0.1
				c5.9,0,11.2-0.1,15.7-0.2c1.5,0,2.8-0.1,3.8-0.3c1.1-0.2,1.7-0.3,1.8-0.3c0.4,0,0.8,0.1,1.2,0.3c0.4,0.2,0.6,0.6,0.7,1.1
				c0.1,0.9,0.3,2.3,0.6,4.1c0.4,2.6,0.6,4.4,0.6,5.3c0,0.4-0.1,0.8-0.3,1c-0.2,0.2-0.4,0.4-0.7,0.4c-0.6,0-1.1-0.4-1.4-1.2
				c-0.1-0.3-0.4-0.9-0.8-1.8c-0.4-0.9-0.7-1.6-0.9-2.1s-0.6-1-0.9-1.3c-1.5-1.5-3.2-2.2-5.2-2.2H382c-1.1,0-2,0.3-2.8,0.9
				c-0.8,0.6-1.2,1.4-1.2,2.3v13.7c0,1.2,0.6,1.7,1.8,1.7h6.4c1.2,0,2-0.4,2.6-1.1c0.6-0.7,1.1-1.8,1.6-3.3c0.3-0.9,0.8-1.4,1.5-1.4
				c0.2,0,0.5,0.1,0.7,0.4c0.2,0.3,0.3,0.7,0.2,1.2c-0.2,2.4-0.3,4.4-0.3,5.9c0,2,0.1,4,0.2,5.9l0.1,0.6c0,0.9-0.3,1.3-0.8,1.3
				c-0.3,0-0.7-0.2-1-0.5c-0.3-0.3-0.5-0.8-0.7-1.3c-0.4-1.5-0.9-2.7-1.5-3.4c-0.6-0.7-1.3-1.1-2.2-1.1h-6.7c-1.2,0-1.8,0.6-1.8,1.7
				v13.8c0,1.4,0.3,2.4,0.9,3c0.6,0.6,1.6,0.9,2.9,0.9h6.2c2.3,0,4.2-0.5,5.5-1.6c1.4-1.1,2.7-3,4.1-5.8c0.3-0.6,0.8-0.9,1.4-0.9
				c0.2,0,0.4,0.1,0.5,0.4c0.1,0.3,0.2,0.6,0.2,1c0,0.9-0.1,1.9-0.4,3.1c-0.3,1.2-0.7,2.7-1.3,4.5c-0.2,0.7-0.4,1.3-0.6,1.8
				c-0.1,0.3-0.3,0.5-0.6,0.7c-0.3,0.2-0.6,0.3-1,0.3c-2,0-3.9,0-5.7-0.1c-10.1-0.1-16.1-0.2-17.9-0.2c-1.6,0-3.3,0.1-5,0.2
				C365,325,363.3,325.1,362.3,325.1z M321.9,324.9c4.1,0.2,7.2,0.3,9.6,0.3c5.3,0,9.9-1.1,13.8-3.4c3.9-2.3,6.9-5.3,9-9.1
				c2.1-3.8,3.1-7.9,3.1-12.3c0-4.5-1.1-8.5-3.4-12.1c-2.2-3.6-5.3-6.4-9.3-8.3c-3.9-2-8.3-3-13.2-3c-2.1,0-4.8,0.1-8,0.4
				c-3.7,0.2-5.9,0.3-6.7,0.3c-1,0-2.6,0-4.9-0.1c-1.8-0.1-3.6-0.2-5.4-0.2c-0.4,0-0.7,0.1-1,0.3c-0.3,0.2-0.4,0.5-0.4,0.8
				c0,0.8,0.5,1.3,1.5,1.5c1.9,0.4,3.2,1,3.8,1.6c0.6,0.6,0.9,1.7,0.9,3.3v32.9c0,1.5-0.3,2.6-1,3.2c-0.7,0.6-1.9,1.1-3.8,1.5
				c-1,0.2-1.5,0.7-1.5,1.5c0,0.3,0.1,0.5,0.4,0.7c0.3,0.2,0.6,0.3,1,0.3c1.1,0,2.9,0,5.4-0.1l4.8-0.1
				C318,324.7,319.8,324.8,321.9,324.9z M341.5,316.4c-2.5,3.4-6.2,5.1-11.1,5.1c-2.6,0-4.6-0.5-5.9-1.4c-1.3-1-2-2.6-2-4.9v-31.6
				c0-1.2,0.5-2,1.5-2.3c1-0.3,2.9-0.5,5.5-0.5c3.2,0,6,0.9,8.4,2.7c2.4,1.8,4.2,4.3,5.4,7.5c1.2,3.2,1.8,7,1.8,11.3
				C345.3,308.2,344,312.9,341.5,316.4z M400.7,324c0,0.8,0.7,1.2,2.2,1.2c1.5,0,2.8-0.1,4-0.2c0.4,0,1.1-0.1,1.8-0.1
				c0.8,0,1.5-0.1,2.1-0.1c1.2,0,2.1,0,2.8,0.1l4.6,0.1c0.6,0,1.1-0.1,1.5-0.3c0.4-0.2,0.6-0.4,0.6-0.7c0-0.4-0.2-0.7-0.7-1
				c-0.4-0.3-0.9-0.5-1.5-0.6c-1.1-0.1-1.9-0.5-2.5-1c-0.6-0.5-0.9-1.2-0.9-2c0-0.9,0.4-2,1.2-3.3l6.8-9.8c0.5-0.8,1-1.2,1.5-1.2
				c0.4,0,1,0.5,1.7,1.4l7.9,11.2c0.4,0.6,0.7,1.2,0.7,1.7c0,1.3-1.4,2.3-4.1,2.9c-0.5,0.1-1,0.4-1.4,0.6c-0.4,0.3-0.7,0.6-0.7,0.9
				c0,0.3,0.2,0.5,0.6,0.8c0.4,0.2,0.9,0.3,1.3,0.3l4.6-0.1c2.2-0.1,3.9-0.1,4.9-0.1c2,0,4,0.1,6,0.2c0.7,0,1.7,0,3.2,0.1
				c1.4,0.1,2.8,0.1,4.1,0.1c0.6,0,1-0.1,1.4-0.3c0.3-0.2,0.5-0.4,0.5-0.8c0-0.4-0.3-0.8-0.8-1.1c-0.6-0.3-1.1-0.5-1.8-0.7
				c-1.7-0.5-3.5-2-5.2-4.4l-12.1-17.2c-0.5-0.7-0.8-1.4-0.8-2c0-0.5,0.3-1.2,0.9-1.9l9.9-12.3c0.9-1.1,2-2.1,3.2-3
				c1.2-0.9,2.3-1.5,3.4-1.8c0.7-0.2,1.3-0.4,1.6-0.6c0.4-0.2,0.5-0.5,0.5-0.9c0-0.4-0.2-0.7-0.7-0.9c-0.5-0.2-1-0.3-1.6-0.3
				c-1,0-2.2,0.1-3.8,0.3c-0.3,0-0.9,0-1.6,0.1c-0.7,0.1-1.4,0.1-2.1,0.1l-3.2-0.1c-1.3-0.1-2.4-0.1-3.4-0.1c-1.5,0-2.2,0.3-2.2,0.9
				c0,0.6,0.7,1.2,2.2,1.6c1.2,0.3,2,0.7,2.5,1.1c0.5,0.4,0.7,0.9,0.7,1.6c0,1.1-0.6,2.4-1.7,4l-6,8.3c-0.4,0.6-0.8,0.9-1.1,0.9
				c-0.4,0-0.8-0.3-1.4-1l-6.9-9.4c-0.8-1.1-1.2-1.9-1.2-2.5c0-0.8,0.3-1.4,0.9-1.7c0.6-0.4,1.7-0.8,3.3-1.2
				c0.6-0.1,1.1-0.3,1.5-0.6c0.4-0.2,0.6-0.6,0.6-0.9c0-0.3-0.2-0.5-0.6-0.7c-0.4-0.2-0.9-0.3-1.4-0.3c-1.5,0-3,0.1-4.6,0.2
				c-0.5,0-1.2,0.1-2.1,0.1c-0.9,0-1.8,0.1-2.5,0.1c-1.5,0-2.9,0-4.1-0.1c-1.2,0-2.1-0.1-2.9-0.1c-2.3-0.1-4.6-0.2-6.7-0.2
				c-0.4,0-0.8,0.1-1.1,0.3c-0.3,0.2-0.4,0.4-0.4,0.8c0,0.4,0.1,0.7,0.4,0.9c0.3,0.2,0.7,0.4,1.3,0.6c1.3,0.4,2.4,1,3.2,1.7
				c0.8,0.7,1.8,1.8,2.8,3.3l10.3,14.5c0.7,0.9,1,1.8,1,2.5c0,0.8-0.3,1.6-1,2.5l-8.8,11.4c-1.5,2-3.1,3.6-4.5,4.6
				c-1.5,1-3,1.8-4.5,2.2c-0.1,0-0.3,0.1-0.7,0.3c-0.3,0.1-0.6,0.3-0.9,0.4S400.7,323.7,400.7,324z"/>
			<path id="Shape_1_" class="st1" d="M482.3,324.3c0,0.5,0.7,0.8,2.1,0.8c1.8,0,3.4-0.1,4.9-0.2c1.7-0.1,3.2-0.1,4.4-0.1
				c1,0,2.3,0,3.8,0.1c1.3,0.1,2.9,0.2,4.6,0.2c1.4,0,2.1-0.3,2.1-0.8c0-0.3-0.2-0.6-0.6-0.8c-0.4-0.2-1-0.4-1.8-0.5
				c-1.9-0.3-3.3-0.9-4.3-1.8c-1-0.9-1.4-2.2-1.4-3.8v-28.5c0-2.8,0.1-4.7,0.2-5.8c0.1-1.1,0.4-1.8,0.9-2.1c0.5-0.3,1.3-0.4,2.5-0.4
				h7.3c2.2,0,3.8,0.3,4.9,0.9c1,0.6,1.6,1.4,1.8,2.5s0.4,1.8,0.6,2.3s0.5,0.7,0.8,0.7s0.6-0.3,0.8-0.8c0.2-0.5,0.3-1,0.3-1.5v-0.9
				c0-0.8,0.1-1.5,0.3-2.1l0.4-2.2c0.2-1.2,0.3-1.8,0.3-2c0-0.4,0-0.8-0.1-1.1c-0.1-0.4-0.2-0.5-0.4-0.5c-0.5,0-1,0.2-1.6,0.6
				c-0.6,0.4-1,0.7-1.3,0.8c-1.6,0.7-3.9,1.1-6.9,1.1h-25.5c-1.1,0-2.2-0.1-3.2-0.4c-1-0.2-1.6-0.6-1.9-1.1c-0.2-0.5-0.6-1-1-1.5
				c-0.4-0.5-0.7-0.8-0.8-0.8c-0.7,0-1.1,0.6-1.2,1.7c-0.2,1.6-0.5,2.9-0.8,4c-0.3,1.1-0.8,2.3-1.5,3.6c-0.2,0.5-0.4,1-0.4,1.4
				c0,0.6,0.2,0.9,0.5,0.9c0.5,0,1-0.3,1.6-0.9c0.6-0.6,1.1-1.2,1.3-1.8c0.5-0.9,1.3-1.6,2.4-2.1c1.1-0.5,2.3-0.7,3.6-0.7h3.4
				c1.1,0,2.1,0,2.9,0c0.8,0,1.6,0.1,2.2,0.3c0.6,0.1,1,0.7,1.2,1.8c0.2,1.1,0.3,3.3,0.3,6.6v28.1c0,1.7-0.5,3-1.4,3.8
				c-0.9,0.9-2.4,1.5-4.2,1.8c-0.8,0.1-1.4,0.3-1.8,0.5C482.5,323.7,482.3,323.9,482.3,324.3z M557.8,325.3c1.6,0.6,3.5,0.9,5.8,0.9
				c1.4,0,2.7-0.2,4-0.6c0.8-0.2,1.4-0.6,1.7-1c0.1,0.1,0.2,0.1,0.3,0.2c0.4,0.2,0.9,0.3,1.5,0.3c1.2,0,2.4-0.1,3.8-0.2
				c0.5,0,1.2,0,2.2-0.1c1-0.1,1.9-0.1,2.7-0.1l4.4,0.1c0.6,0,1.3,0.1,2.2,0.1c1.4,0,2.1-0.3,2.1-0.8c0-0.3-0.2-0.6-0.5-0.8
				c-0.4-0.2-1-0.4-1.8-0.7c-1.2-0.3-2.2-0.8-3-1.5c-0.8-0.7-1.2-1.6-1.2-2.6c0-0.4,0.4-1.9,1.1-4.4c0.7-2.5,1.4-4.5,1.9-6.1
				c0.3-0.9,0.7-1.3,1.2-1.3h13.7c0.7,0,1.1,0,1.4,0.1c0.3,0.1,0.4,0.3,0.5,0.7c1.9,6.3,2.8,10.2,2.8,11.7c0,1.7-1.5,2.8-4.4,3.3
				c-0.7,0.1-1.2,0.3-1.7,0.5c-0.5,0.3-0.7,0.5-0.7,0.8c0,0.6,0.7,0.9,2.1,0.9l7.6-0.1c1.4,0,3.5,0.1,6.2,0.3l3.9,0.1
				c1.4,0,2.1-0.2,2.1-0.7c0-0.3-0.2-0.7-0.6-1c-0.4-0.3-1-0.5-1.8-0.7c-1.7-0.3-3.2-0.9-4.3-1.8c-1.1-0.9-2.1-2.7-3-5.4
				c-5-14.5-9.3-27.4-12.9-38.7c-0.1-0.2-0.2-0.5-0.3-0.8s-0.2-0.6-0.3-0.8c0,0-0.1-0.1-0.2-0.1c-0.1,0-0.1,0-0.2,0
				c-0.1,0.2-0.3,0.6-0.5,1.2c-0.2,0.6-0.5,1-0.9,1.3c-0.5,0.3-1,0.6-1.6,0.8c-0.6,0.2-0.9,0.3-1.1,0.3c-0.1,1.3-0.5,2.7-1,4.2
				c-2.7,7.2-4.9,13.2-6.8,18c-1.9,4.8-4.1,10.2-6.7,16.1c-0.7,1.7-1.6,2.9-2.6,3.7c-1,0.8-2.2,1.4-3.6,1.8
				c-0.9,0.3-1.6,0.6-1.9,0.9c-0.1-0.3-0.5-0.5-1-0.5c-2,0-3.6-0.1-4.8-0.4c-1.2-0.3-2.4-0.9-3.6-2c-3-2.8-5.5-5.4-7.4-7.8
				c-1.9-2.5-4.3-6-7.4-10.6c-0.1-0.2-0.2-0.4-0.2-0.6c0-0.2,0.1-0.3,0.2-0.4c5.7-2.9,8.6-7,8.6-12.2c0-3.9-1.4-6.9-4.2-8.9
				c-2.8-2-6.8-3-12.1-3c-0.8,0-2.5,0.1-5.1,0.2c-1.4,0.1-2.5,0.1-3.3,0.1h-3c-0.6,0-2-0.1-4.1-0.1c-1.4,0-2.1,0.3-2.1,0.8
				c0,0.3,0.2,0.7,0.6,0.9c0.4,0.3,1,0.5,1.8,0.5c1.4,0.1,2.4,0.4,3,0.8c0.6,0.4,1,1,1.2,1.8s0.3,2.3,0.3,4.3v30.9
				c0,1.7-0.4,3-1.2,3.8c-0.8,0.8-2.2,1.4-4.1,1.7c-0.8,0.1-1.4,0.3-1.8,0.5c-0.4,0.2-0.6,0.5-0.6,0.8c0,0.5,0.7,0.8,2.1,0.8
				c1.3,0,2.9-0.1,4.9-0.3c0.4,0,1,0,1.9-0.1c0.9-0.1,1.8-0.1,2.6-0.1c1.1,0,2,0.1,2.9,0.2c1.3,0.2,2.7,0.3,4.2,0.3
				c1.4,0,2.1-0.3,2.1-0.8c0-0.3-0.2-0.6-0.6-0.8c-0.4-0.2-1-0.4-1.8-0.5c-3.2-0.6-4.9-2.7-4.9-6.2V304c0-1,0.3-1.4,0.9-1.4h0.1
				c2.2,0.2,4.1,0.7,5.7,1.5c1.4,0.7,2.4,1.6,3.1,2.8c2.2,3.6,4.1,6.4,5.5,8.4c1.4,2,3.3,4.3,5.5,7.1
				C554.8,323.7,556.2,324.8,557.8,325.3z M569.4,323.3c-0.3,0.2-0.4,0.5-0.4,0.8c0,0.2,0.1,0.3,0.2,0.5c0.2-0.3,0.3-0.6,0.3-0.9
				C569.5,323.5,569.5,323.4,569.4,323.3z M536.5,300.8c2.1,0,4-0.5,5.7-1.5c1.7-1,2.9-2.3,3.8-4c0.9-1.6,1.3-3.4,1.3-5.3
				c0-3.4-0.7-6.1-2.2-8c-1.5-1.9-4.3-2.9-8.5-2.9c-1.5,0-2.5,0.5-3,1.4c-0.5,0.9-0.8,2.7-0.9,5.3c-0.1,3.3-0.1,7.4-0.1,12.3
				c0,1.1,0.3,1.8,0.9,2.1C534.1,300.7,535.1,300.8,536.5,300.8z M599.3,304.2c0.3,0,0.5,0,0.7-0.1c0.2,0,0.3-0.1,0.3-0.3l-0.1-0.7
				l-5.7-17.7c-0.3-0.9-0.5-1.3-0.7-1.3c-0.1,0-0.3,0.4-0.6,1.2l-6.6,17.8l-0.1,0.6c0,0.2,0.1,0.4,0.3,0.4c0.2,0,0.6,0.1,1.2,0.1
				H599.3z M631.1,324.7c2.5,0,6.4,0.1,11.7,0.4l3.3,0.1c4.5,0,8.7-1.1,12.6-3.4c3.9-2.3,6.9-5.4,9.2-9.2c2.3-3.9,3.4-8.1,3.4-12.6
				c0-4.4-1-8.3-2.9-11.8c-1.9-3.5-4.9-6.2-9-8.2c-4.1-2-9.3-3-15.6-3c-0.6,0-1.3,0-2.1,0.1c-0.8,0-1.8,0.1-2.8,0.1
				c-3,0.2-5.5,0.4-7.5,0.4c-1.9,0-3.2,0-3.9-0.1l-4.1-0.1c-1.4,0-2.1,0.3-2.1,0.9c0,0.4,0.2,0.7,0.5,0.8c0.3,0.2,1,0.3,1.9,0.5
				c1.8,0.3,3.1,0.9,3.8,1.6c0.7,0.7,1.1,2,1.1,3.7v32.6c0,1.7-0.4,3-1.1,3.8c-0.7,0.8-2,1.3-3.8,1.7c-1,0.2-1.7,0.3-2,0.4
				c-0.3,0.1-0.4,0.3-0.4,0.7c0,0.6,0.7,0.9,2.1,0.9c1.8,0,3.3-0.1,4.3-0.2C629.2,324.7,630.3,324.7,631.1,324.7z M645.3,322.7
				c3.7,0,7-0.9,10-2.8c2.9-1.8,5.2-4.4,6.8-7.6c1.6-3.3,2.4-7,2.4-11.1c0-4.4-1-8.3-2.9-11.7c-1.9-3.3-4.5-5.9-7.6-7.6
				c-3.1-1.8-6.4-2.6-9.8-2.6c-2.6,0-4.5,0.1-5.8,0.2c-1.3,0.1-2.3,0.5-3,1.2c-0.7,0.6-1.1,1.6-1.1,3v32.3c0,2.7,1,4.4,2.9,5.4
				C639.3,322.2,642,322.7,645.3,322.7z M676.6,324.3c0,0.5,0.7,0.8,2.1,0.8c0.6,0,2.1-0.1,4.6-0.2c1.2-0.1,2.4-0.2,3.8-0.2
				c3.3,0,6.6,0.1,9.9,0.2c7.5,0.1,11.8,0.2,12.8,0.2c0.2,0,0.4-0.1,0.5-0.2c0.1-0.1,0.2-0.3,0.3-0.5c0.1-0.2,0.2-0.4,0.2-0.5
				c0.4-1,0.9-2.5,1.4-4.5c0.5-2,0.8-3.3,0.8-4c0-0.7-0.3-1-0.9-1c-0.3,0-0.7,0.3-1,0.9c-0.8,1.5-1.5,2.7-2.1,3.6s-1.3,1.5-2,2
				c-0.7,0.4-1.6,0.7-2.6,0.9c-1,0.2-2.4,0.3-4,0.3H695c-1.7,0-2.9-0.4-3.7-1.1c-0.7-0.7-1.1-2-1.1-3.8v-13.9c0-0.8,0.2-1.3,0.5-1.5
				c0.4-0.2,1-0.4,1.9-0.4h6.7c0.9,0,1.6,0.3,2.1,0.8c0.5,0.5,0.9,1.3,1.2,2.5c0.4,1.5,0.9,2.3,1.7,2.3c0.4,0,0.7-0.4,0.7-1.2
				l-0.1-1.7l-0.1-3.8l0.1-3.2l0.1-1.9c0-0.3-0.1-0.6-0.3-0.8c-0.2-0.2-0.4-0.3-0.6-0.3c-0.6,0-1,0.5-1.3,1.6
				c-0.4,1.4-0.8,2.3-1.4,2.8c-0.5,0.5-1.5,0.7-2.8,0.7h-7.2c-0.3,0-0.6-0.2-0.9-0.5c-0.3-0.3-0.4-0.7-0.4-1.1v-15.4
				c0-0.6,0.3-1.2,0.9-1.6c0.6-0.5,1.2-0.7,1.7-0.7h9.5c2.1,0,3.7,0.7,4.9,2c0.4,0.4,0.7,1.1,1,2.1c0.3,1,0.5,1.6,0.6,1.9
				c0.1,0.3,0.2,0.5,0.3,0.6c0.1,0.1,0.3,0.1,0.5,0.1c0.7,0,1-0.4,1-1.1c0-1.1-0.2-2.5-0.5-4.3c-0.3-1.7-0.5-2.8-0.6-3.2
				c0-0.4-0.5-0.7-1.3-0.7l-6.2,0.1l-9.9,0.1l-6.2-0.1c-2.6-0.1-4.8-0.1-6.7-0.1c-1.4,0-2.1,0.3-2.1,0.8c0,0.7,0.8,1.2,2.4,1.4
				c1.8,0.3,3.1,0.9,3.8,1.6c0.7,0.7,1.1,2,1.1,3.7v32.6c0,1.7-0.4,2.9-1.3,3.7c-0.8,0.8-2.2,1.4-4.1,1.7c-0.8,0.1-1.4,0.3-1.8,0.5
				C676.8,323.7,676.6,323.9,676.6,324.3z"/>
			<rect id="Rectangle" x="458.1" y="300.4" class="st2" width="7" height="4"/>
		</g>
	</g>
</g>
</svg>
