<?xml version="1.0" encoding="UTF-8"?>
<!DOCTYPE svg PUBLIC "-//W3C//DTD SVG 1.1//EN" "http://www.w3.org/Graphics/SVG/1.1/DTD/svg11.dtd">
<!-- Creator: CorelDRAW 2019 (64-Bit) -->
<svg xmlns="http://www.w3.org/2000/svg" xml:space="preserve" width="180.576mm" height="180.576mm" version="1.1" style="shape-rendering:geometricPrecision; text-rendering:geometricPrecision; image-rendering:optimizeQuality; fill-rule:evenodd; clip-rule:evenodd"
viewBox="0 0 18057.6 18057.6"
 xmlns:xlink="http://www.w3.org/1999/xlink"
 xmlns:xodm="http://www.corel.com/coreldraw/odm/2003">
 <defs>
  <style type="text/css">
   <![CDATA[
    .fil0 {fill:white;fill-rule:nonzero}
   ]]>
  </style>
 </defs>
 <g id="Layer_x0020_1">
  <metadata id="CorelCorpID_0Corel-Layer"/>
  <path class="fil0" d="M9600.3 22.38c-116.42,45.86 -148.17,211.67 -148.17,751.42l0 529.17 -95.25 0c-186.97,0 -356.31,74.08 -465.67,197.56l-109.36 123.47 0 2596.44c0,2540 0,2596.44 70.56,2709.33 88.19,141.11 261.06,229.31 451.56,229.31l144.64 0 10.58 754.94c10.58,684.39 17.64,762 77.61,829.03 88.19,95.25 278.69,98.78 373.94,3.53 67.03,-67.03 70.56,-116.42 70.56,-829.03l0 -758.47 169.33 0c197.56,0 366.89,-91.72 465.67,-254 67.03,-109.36 70.56,-179.92 70.56,-1273.53 0,-1107.72 -3.53,-1157.11 -70.56,-1224.14 -105.83,-105.83 -292.81,-95.25 -384.53,21.17 -70.56,91.72 -74.08,134.06 -74.08,1146.53l0 1054.81 -440.97 0 -440.97 0 7.06 -2391.83 10.58 -2388.31 433.92 -10.58 430.39 -10.58 0 846.67c0,829.03 0,846.67 81.14,934.86 112.89,127 261.06,137.58 377.47,21.17 67.03,-67.03 70.56,-116.42 70.56,-1005.42 0,-1030.11 -7.06,-1072.44 -211.67,-1217.08 -63.5,-45.86 -186.97,-84.67 -299.86,-95.25l-194.03 -21.17 0 -575.03 0 -575.03 -91.72 -70.56c-91.72,-70.56 -194.03,-88.19 -289.28,-49.39l-0.01 -0.01zm-800.81 9927.17c-1474.61,797.28 -2695.22,1456.97 -2716.39,1464.03 -17.64,7.06 -109.36,-179.92 -204.61,-419.81 -134.06,-349.25 -183.44,-444.5 -257.53,-476.25 -49.39,-24.69 -105.83,-42.33 -130.53,-42.33 -91.72,0 -3785.31,1601.61 -3845.28,1665.11 -137.58,158.75 -35.28,416.28 169.33,416.28 81.14,0 716.14,-254 1820.33,-726.72 931.33,-398.64 1707.44,-716.14 1718.03,-702.03 10.58,10.58 88.19,194.03 169.33,409.22 172.86,448.03 229.31,525.64 377.47,525.64 127,0 5715,-2995.08 5838.47,-3129.14 91.72,-102.31 98.78,-222.25 17.64,-324.56 -151.69,-179.92 -88.19,-211.67 -2956.28,1340.56l0.02 0zm6582.84 -4180.42c-42.33,52.92 -74.08,119.94 -74.08,151.69 0,95.25 105.83,218.72 239.89,275.17l127 52.92 -603.25 321.03c-328.08,179.92 -627.94,345.72 -659.69,373.94 -81.14,67.03 -74.08,268.11 14.11,356.31 123.47,123.47 243.42,88.19 889,-261.06 335.14,-179.92 613.83,-328.08 617.36,-324.56 3.53,3.53 -17.64,77.61 -49.39,169.33 -56.44,151.69 -56.44,165.81 3.53,254 77.61,123.47 204.61,169.33 324.56,127 98.78,-38.81 172.86,-190.5 366.89,-733.78l116.42 -328.08 -70.56 -95.25c-49.39,-70.56 -190.5,-141.11 -508,-264.58 -508,-194.03 -631.47,-204.61 -733.78,-74.08l-0.01 0zm-11945.06 -1439.33c-158.75,31.75 -194.03,109.36 -194.03,402.17l0 275.17 -158.75 0c-183.44,0 -313.97,56.44 -440.97,194.03l-88.19 95.25 -10.58 839.61 -10.58 839.61 95.25 74.08c105.83,84.67 151.69,91.72 271.64,35.28 148.17,-67.03 165.81,-169.33 165.81,-878.42l0 -670.28 423.33 0 423.33 0 0 1534.58 0 1534.58 -419.81 0 -419.81 0 -14.11 -373.94c-10.58,-342.19 -17.64,-377.47 -95.25,-440.97 -112.89,-91.72 -257.53,-84.67 -349.25,14.11 -70.56,74.08 -77.61,119.94 -77.61,522.11 0,370.42 10.58,455.08 70.56,550.33 95.25,158.75 211.67,222.25 437.44,246.94l197.56 21.17 0 751.42c0,709.08 3.53,758.47 70.56,825.5 77.61,77.61 211.67,91.72 317.5,35.28 116.42,-59.97 141.11,-232.83 141.11,-934.86l0 -677.33 179.92 -21.17c215.19,-24.69 328.08,-91.72 419.81,-246.94 67.03,-109.36 70.56,-190.5 70.56,-1820.33 0,-1647.47 -3.53,-1710.97 -70.56,-1820.33 -88.19,-141.11 -261.06,-229.31 -451.56,-229.31l-141.11 0 -14.11 -261.06c-14.11,-335.14 -112.89,-458.61 -328.08,-416.28l-0.02 0zm9232.2 -3051.53c-70.56,74.08 -77.61,123.47 -84.67,659.69l-10.58 582.08 -606.78 10.58 -606.78 7.06 -70.56 95.25c-42.33,49.39 -74.08,116.42 -74.08,151.69 0,35.28 31.75,102.31 74.08,151.69l70.56 95.25 606.78 7.06 606.78 10.58 10.58 550.33 7.06 550.33 -201.08 21.17c-229.31,24.69 -352.78,102.31 -440.97,275.17 -56.44,109.36 -63.5,271.64 -63.5,1799.17l0 1679.22 81.14 119.94c98.78,151.69 282.22,243.42 476.25,243.42l148.17 0 0 1107.72 0 1111.25 91.72 70.56c116.42,91.72 229.31,95.25 335.14,7.06l84.67 -67.03 10.58 -1114.78 10.58 -1114.78 148.17 0c190.5,0 377.47,-98.78 465.67,-250.47 67.03,-116.42 70.56,-183.44 70.56,-1813.28 0,-1626.31 -3.53,-1696.86 -70.56,-1809.75 -81.14,-137.58 -306.92,-254 -486.83,-254l-130.53 0 0 -567.97 0 -564.44 1721.56 14.11c1188.86,7.06 1756.83,24.69 1841.5,52.92 211.67,70.56 448.03,243.42 578.56,419.81 246.94,331.61 232.83,21.17 232.83,5132.92l0 4614.33 -8466.67 0 -8466.67 0 0 -4614.33c0,-5111.75 -14.11,-4801.3 232.83,-5132.92 130.53,-176.39 366.89,-349.25 578.56,-419.81 88.19,-31.75 793.75,-45.86 2547.06,-56.44l2427.11 -10.58 0 261.06 0 264.58 -186.97 14.11c-225.78,17.64 -381,116.42 -462.14,289.28 -49.39,105.83 -56.44,321.03 -56.44,1767.42 0,1446.39 7.06,1661.58 56.44,1767.42 81.14,172.86 236.36,271.64 462.14,289.28l186.97 14.11 0 1192.39c0,656.17 10.58,1220.61 21.17,1252.36 35.28,91.72 222.25,158.75 328.08,119.94 176.39,-70.56 176.39,-70.56 179.92,-1358.19l0 -1206.5 186.97 -14.11c225.78,-17.64 381,-116.42 462.14,-289.28 49.39,-105.83 56.44,-321.03 56.44,-1767.42 0,-1446.39 -7.06,-1661.58 -56.44,-1767.42 -81.14,-172.86 -236.36,-271.64 -462.14,-289.28l-186.97 -14.11 0 -261.06 0 -261.06 610.31 0c691.44,0 730.25,-14.11 730.25,-254 0,-222.25 -49.39,-239.89 -733.78,-239.89l-606.78 0 0 -102.31c0,-151.69 -31.75,-211.67 -144.64,-271.64 -194.03,-98.78 -384.53,28.22 -384.53,257.53l0 116.42 -2469.44 0c-2409.47,0 -2476.5,3.53 -2691.69,74.08 -550.33,183.44 -952.5,613.83 -1100.67,1185.33 -45.86,172.86 -52.92,864.31 -52.92,5044.72 0,3474.86 10.58,4893.03 38.81,5027.08 102.31,476.25 455.08,924.28 892.53,1139.47 137.58,67.03 335.14,141.11 440.97,158.75 112.89,21.17 1033.64,35.28 2264.83,35.28l2077.86 0 0 663.22 0 663.22 -430.39 500.94 -430.39 500.94 -208.14 0c-246.94,0 -324.56,35.28 -370.42,169.33 -42.33,119.94 21.17,299.86 116.42,338.67 31.75,10.58 2106.08,21.17 4607.28,21.17l4550.83 0 84.67 -88.19c49.39,-45.86 88.19,-127 88.19,-176.39 0,-49.39 -38.81,-130.53 -88.19,-176.39 -70.56,-74.08 -119.94,-88.19 -289.28,-88.19l-208.14 0 -430.39 -500.94 -430.39 -500.94 0 -663.22 0 -663.22 2077.86 0c1231.19,0 2151.94,-14.11 2264.83,-35.28 635,-116.42 1195.92,-666.75 1333.5,-1298.22 28.22,-134.06 38.81,-1552.22 38.81,-5027.08 0,-4180.42 -7.06,-4871.86 -52.92,-5044.72 -148.17,-571.5 -550.33,-1001.89 -1100.67,-1185.33 -211.67,-70.56 -292.81,-74.08 -1982.61,-74.08l-1763.89 0 -10.58 -603.25c-10.58,-585.61 -14.11,-603.25 -95.25,-670.28 -109.36,-91.72 -257.53,-84.67 -349.25,14.11l-0.01 0zm-5616.23 4346.22l0 1534.58 -440.97 0 -440.97 0 0 -1534.58 0 -1534.58 440.97 0 440.97 0 0 1534.58zm6244.17 599.73l0 1534.58 -440.97 0 -440.97 0 0 -1534.58 0 -1534.58 440.97 0 440.97 0 0 1534.58zm4145.14 7644.69c-81.14,271.64 -363.36,578.56 -649.11,712.61 -162.28,74.08 -194.03,74.08 -3048,91.72l-2889.25 17.64 -70.56 88.19c-49.39,59.97 -63.5,116.42 -49.39,190.5 38.81,197.56 84.67,215.19 585.61,225.78l458.61 14.11 0 578.56 0 578.56 -335.14 0c-366.89,0 -483.31,35.28 -543.28,165.81 -56.44,119.94 -49.39,165.81 35.28,271.64 70.56,91.72 77.61,91.72 536.22,95.25l465.67 0 261.06 306.92 261.06 306.92 -1714.5 10.58c-945.44,3.53 -2490.61,3.53 -3436.06,0l-1714.5 -10.58 261.06 -306.92 261.06 -306.92 465.67 0c458.61,-3.53 465.67,-3.53 536.22,-95.25 84.67,-105.83 91.72,-151.69 35.28,-271.64 -59.97,-130.53 -176.39,-165.81 -543.28,-165.81l-335.14 0 0 -582.08 0 -582.08 1830.92 0c1795.64,0 1830.92,0 1922.64,-74.08 119.94,-95.25 127,-271.64 10.58,-377.47l-81.14 -77.61 -4265.08 -7.06 -4268.61 -10.58 -162.28 -74.08c-285.75,-134.06 -567.97,-440.97 -649.11,-712.61l-21.17 -77.61 8434.92 0 8434.92 0 -21.17 77.61 -0.01 -0.02z"/>
 </g>
</svg>
